# xmcd CD database file
#
# Track frame offsets:
#	150
#	14754
#	31305
#	41613
#	70634
#	81116
#	94204
#	111740
#	122173
#	134656
#	150191
#	161634
#
# Disc length: 2380 seconds
#
# Revision: 0
# Processed by: cddbd v1.5.2PL0 Copyright (c) Steve Scherf et al.
# Submitted via: CDex 1.51
#
DISCID=a0094a0c
DTITLE=Sunday Jazz - Oscar Peterson - In a Romantic Mood
DYEAR=1955
DGENRE=Jazz
TTITLE0=Ruby
TTITLE1=Stars Fell On Alabama
TTITLE2=Black Coffee
TTITLE3=Laura
TTITLE4=The Boy Next Door
TTITLE5=Our Waltz
TTITLE6=Tenderly
TTITLE7=I Thought About You
TTITLE8=I Only Have Eyes For You
TTITLE9=Stella By Starlight
TTITLE10=A Sunday Kind Of Love
TTITLE11=It Could Happen To You
EXTD=YEAR: 1955
EXTT0=
EXTT1=
EXTT2=
EXTT3=
EXTT4=
EXTT5=
EXTT6=
EXTT7=
EXTT8=
EXTT9=
EXTT10=
EXTT11=
PLAYORDER=
